# xmcd
#
# Track frame offsets:
#	150
#	12783
#	29032
#	46914
#	65035
#	82318
#	108679
#	122117
#	135194
#	159835
#	180133
#	202162
#	222813
#	244000
#
# Disc length: 3599 seconds
#
# Revision: 1
# Processed by: cddbd v1.5.2PL0 Copyright (c) Steve Scherf et al.
# Submitted via: audiograbber 1.83.01
#
DISCID=c00e0d0e
DTITLE=Bluesmasters - Tha Masters Voice
DYEAR=2003
DGENRE=Blues
TTITLE0=Stripping For Tips
TTITLE1=If You Love Me (Like You Say)
TTITLE2=Sick and Tired
TTITLE3=I Like Your Shoes
TTITLE4=You Can't Fool Me
TTITLE5=Dangerous Mood
TTITLE6=I'm Easy
TTITLE7=Bama Lama Bama Loo
TTITLE8=When You're Cool
TTITLE9=Go Like Elijah
TTITLE10=Start It Up
TTITLE11=You Can't Stand On One Leg
TTITLE12=Black Cat
TTITLE13=Treat Her Right
EXTD=
EXTT0=
EXTT1=
EXTT2=
EXTT3=
EXTT4=
EXTT5=
EXTT6=
EXTT7=
EXTT8=
EXTT9=
EXTT10=
EXTT11=
EXTT12=
EXTT13=
PLAYORDER=
